<svg xmlns="http://www.w3.org/2000/svg" viewBox="0 0 1440 520" role="img" aria-labelledby="title desc">
  <title>GlyphOS banner</title>
  <desc>Minimal monochrome GlyphOS banner with geometric dot matrix details.</desc>
  <rect width="1440" height="520" fill="#000"/>
  <g fill="#F5F5F3">
    <text x="92" y="182" font-family="Arial, Helvetica, sans-serif" font-size="88" letter-spacing="17">GLYPHOS</text>
    <text x="98" y="224" font-family="Arial, Helvetica, sans-serif" font-size="18" letter-spacing="7">LINUX, REIMAGINED.</text>
    <text x="92" y="70" font-family="Arial, Helvetica, sans-serif" font-size="11" letter-spacing="4">/// GLYPHOS / FOUNDATION</text>
    <text x="1240" y="70" font-family="monospace" font-size="20" letter-spacing="4">001</text>
  </g>
  <g stroke="#555" stroke-width="1" fill="none" opacity=".75">
    <circle cx="1135" cy="240" r="128"/>
    <circle cx="1135" cy="240" r="155"/>
    <line x1="960" y1="240" x2="1310" y2="240"/>
    <line x1="1135" y1="65" x2="1135" y2="415"/>
    <path d="M1068 178 L1135 111 L1202 178"/>
    <path d="M1068 302 L1135 369 L1202 302"/>
  </g>
  <g fill="#F5F5F3">
    <circle cx="1135" cy="240" r="9"/>
    <circle cx="1090" cy="195" r="6"/><circle cx="1108" cy="213" r="6"/><circle cx="1126" cy="231" r="6"/>
    <circle cx="1180" cy="195" r="6"/><circle cx="1162" cy="213" r="6"/><circle cx="1144" cy="231" r="6"/>
    <circle cx="1090" cy="285" r="6"/><circle cx="1108" cy="267" r="6"/><circle cx="1126" cy="249" r="6"/>
    <circle cx="1180" cy="285" r="6"/><circle cx="1162" cy="267" r="6"/><circle cx="1144" cy="249" r="6"/>
    <circle cx="42" cy="45" r="4"/><circle cx="60" cy="45" r="4"/><circle cx="78" cy="45" r="4"/>
    <circle cx="42" cy="478" r="4"/><circle cx="60" cy="478" r="4"/><circle cx="78" cy="478" r="4"/>
  </g>
  <g stroke="#555" stroke-width="1">
    <line x1="90" y1="410" x2="1350" y2="410"/>
    <line x1="328" y1="402" x2="328" y2="418"/>
    <line x1="1112" y1="402" x2="1112" y2="418"/>
  </g>
  <g fill="#777" font-family="monospace" font-size="9" letter-spacing="2">
    <text x="92" y="450">ARCH / PLASMA / WAYLAND</text>
    <text x="92" y="468">MINIMAL / EXPRESSIVE / OPEN SOURCE</text>
    <text x="1210" y="450">GLYPHOS 0.1</text>
  </g>
</svg>